<?xml version="1.0" encoding="UTF-8"?>
<svg xmlns="http://www.w3.org/2000/svg" xmlns:xlink="http://www.w3.org/1999/xlink" viewBox="0 0 500 500">
  <defs>
    <style>
      .cls-1 {
        fill: url(#linear-gradient-12);
        stroke-miterlimit: 10;
      }

      .cls-1, .cls-2 {
        stroke-width: 2px;
      }

      .cls-1, .cls-2, .cls-3 {
        stroke: #0a143a;
      }

      .cls-4 {
        letter-spacing: 0em;
      }

      .cls-5 {
        fill: url(#linear-gradient-5);
      }

      .cls-5, .cls-6, .cls-7, .cls-8, .cls-9, .cls-10, .cls-11, .cls-12, .cls-13, .cls-14, .cls-15, .cls-16, .cls-17, .cls-18, .cls-19 {
        stroke-width: 0px;
      }

      .cls-5, .cls-10, .cls-11, .cls-13 {
        mix-blend-mode: multiply;
      }

      .cls-5, .cls-10, .cls-13 {
        opacity: .3;
      }

      .cls-6 {
        fill: url(#linear-gradient);
      }

      .cls-7 {
        fill: url(#linear-gradient-6);
      }

      .cls-20 {
        isolation: isolate;
      }

      .cls-21 {
        font-family: Montserrat-Black, Montserrat;
        font-size: 42.95px;
        font-weight: 800;
      }

      .cls-21, .cls-19 {
        fill: #0a143a;
      }

      .cls-8 {
        fill: url(#linear-gradient-15);
      }

      .cls-9 {
        fill: url(#linear-gradient-11);
      }

      .cls-10 {
        fill: url(#linear-gradient-10);
      }

      .cls-11 {
        fill: url(#linear-gradient-4);
        opacity: .8;
      }

      .cls-12 {
        fill: url(#linear-gradient-13);
      }

      .cls-22 {
        fill: #fff;
        font-size: 68.38px;
      }

      .cls-13 {
        fill: url(#linear-gradient-3);
      }

      .cls-14 {
        fill: url(#linear-gradient-14);
      }

      .cls-15 {
        fill: url(#linear-gradient-2);
      }

      .cls-16 {
        fill: url(#linear-gradient-7);
      }

      .cls-17 {
        fill: url(#linear-gradient-9);
      }

      .cls-2, .cls-3 {
        fill: none;
        stroke-linecap: round;
        stroke-linejoin: round;
      }

      .cls-23 {
        letter-spacing: -.03em;
      }

      .cls-18 {
        fill: url(#linear-gradient-8);
      }
    </style>
    <linearGradient id="linear-gradient" x1="162.94" y1="111.73" x2="162.94" y2="147.2" gradientUnits="userSpaceOnUse">
      <stop offset="0" stop-color="#ffffa7"/>
      <stop offset="1" stop-color="#e8ab42"/>
    </linearGradient>
    <linearGradient id="linear-gradient-2" x1="251.26" y1="331.7" x2="251.26" y2="127.73" gradientUnits="userSpaceOnUse">
      <stop offset="0" stop-color="#345997"/>
      <stop offset="1" stop-color="#c7e9c1"/>
    </linearGradient>
    <linearGradient id="linear-gradient-3" x1="218.12" y1="207.86" x2="249.35" y2="79.74" xlink:href="#linear-gradient-2"/>
    <linearGradient id="linear-gradient-4" x1="323.08" y1="280.46" x2="340.94" y2="99.49" xlink:href="#linear-gradient-2"/>
    <linearGradient id="linear-gradient-5" x1="248.91" y1="167.86" x2="266.26" y2="96.71" xlink:href="#linear-gradient-2"/>
    <linearGradient id="linear-gradient-6" x1="350.54" y1="290.9" x2="350.54" y2="246.6" gradientUnits="userSpaceOnUse">
      <stop offset="0" stop-color="#537021"/>
      <stop offset="1" stop-color="#d5df6b"/>
    </linearGradient>
    <linearGradient id="linear-gradient-7" x1="150.89" y1="290.9" x2="150.89" y2="246.6" xlink:href="#linear-gradient-6"/>
    <linearGradient id="linear-gradient-8" x1="212.97" y1="248.47" x2="212.97" y2="169.97" gradientUnits="userSpaceOnUse">
      <stop offset="0" stop-color="#a04016"/>
      <stop offset="1" stop-color="#c17135"/>
    </linearGradient>
    <linearGradient id="linear-gradient-9" x1="276.71" y1="175.14" x2="277.59" y2="272.01" gradientUnits="userSpaceOnUse">
      <stop offset="0" stop-color="#e58e38"/>
      <stop offset="1" stop-color="#e27d36"/>
    </linearGradient>
    <linearGradient id="linear-gradient-10" x1="281.08" y1="193.99" x2="281.08" y2="269.34" xlink:href="#linear-gradient-9"/>
    <linearGradient id="linear-gradient-11" x1="155.86" y1="219.69" x2="265.97" y2="219.69" gradientUnits="userSpaceOnUse">
      <stop offset="0" stop-color="#e9a43b"/>
      <stop offset="1" stop-color="#f3d543"/>
    </linearGradient>
    <linearGradient id="linear-gradient-12" x1="250" y1="290.9" x2="250" y2="246.6" xlink:href="#linear-gradient-6"/>
    <linearGradient id="linear-gradient-13" x1="254.54" y1="372.75" x2="254.54" y2="346.27" xlink:href="#linear-gradient-11"/>
    <linearGradient id="linear-gradient-14" x1="254.54" y1="372.75" x2="254.54" y2="346.27" xlink:href="#linear-gradient-11"/>
    <linearGradient id="linear-gradient-15" x1="254.54" y1="372.75" x2="254.54" y2="346.27" xlink:href="#linear-gradient-11"/>
  </defs>
  <g class="cls-20">
    <g id="TEXTS">
      <circle class="cls-6" cx="162.94" cy="131.39" r="19.07"/>
      <g>
        <polygon class="cls-15" points="386.03 282.43 116.49 282.43 221.17 131.38 248.69 155.87 277.55 101.94 386.03 282.43"/>
        <polygon class="cls-13" points="221.18 131.39 198.41 215.25 209.4 209.88 191.76 262.18 248.69 155.87 221.18 131.39"/>
        <polygon class="cls-11" points="277.55 101.94 291.54 195.49 273.8 185.67 282.67 282.43 386.03 282.43 277.55 101.94"/>
        <polygon class="cls-5" points="266.89 129.36 233.04 197.73 254.76 163.6 266.89 129.36"/>
        <polygon class="cls-2" points="386.03 282.43 116.49 282.43 221.17 131.38 248.69 155.87 277.55 101.94 386.03 282.43"/>
        <line class="cls-2" x1="248.69" y1="155.87" x2="237.49" y2="176.79"/>
      </g>
      <g>
        <g>
          <path class="cls-19" d="m229.9,235.67c8.29,3.5,14.74,3.75,18.07,3.54.99-.06,1.43-1.28.7-1.96-17.59-16.43-25.77-34.12-28.61-41.4-.39-1,.7-1.94,1.63-1.39,5.21,3.08,12.06,4.34,16.07,4.84,1.09.13,1.71-1.18.93-1.94-10.24-9.85-19.17-22.11-25.01-33.9-.49-.99.6-2.03,1.57-1.5,6.2,3.42,11.57,5.04,14.87,5.78,1.09.25,1.85-1.06,1.09-1.88-16.2-17.55-23.7-36.62-26.27-44.35-.35-1.04-1.81-1.04-2.15,0-2.57,7.73-10.07,26.8-26.27,44.35-.76.82,0,2.12,1.09,1.88,3.3-.74,8.68-2.36,14.87-5.78.97-.54,2.07.5,1.57,1.5-5.84,11.79-14.77,24.05-25.01,33.9-.79.76-.16,2.08.93,1.94,4.01-.5,10.86-1.75,16.07-4.84.92-.55,2.02.39,1.63,1.39-2.84,7.28-11.01,24.97-28.61,41.4-.72.68-.29,1.9.7,1.96,3.33.21,9.78-.04,18.07-3.54.9-.38,1.83.46,1.54,1.38-2.08,6.48-9.5,25.15-30.18,43.39-.79.69-.3,1.99.75,1.99h107.87c1.05,0,1.53-1.3.75-1.99-20.68-18.24-28.1-36.91-30.18-43.39-.3-.93.64-1.76,1.54-1.38Z"/>
          <path class="cls-19" d="m376.1,251.02c5.2,2.13,9.31,2.41,11.66,2.31.85-.03,1.26-1.08.63-1.67-11.57-10.92-17.16-22.57-19.26-27.83-.34-.84.57-1.64,1.36-1.2,3.3,1.82,7.41,2.65,10.11,3.02.93.13,1.48-.99.81-1.64-6.76-6.59-12.67-14.69-16.63-22.52-.43-.84.5-1.73,1.33-1.29,3.73,1.99,6.99,3.04,9.19,3.58.93.23,1.58-.89.93-1.59-10.58-11.64-15.68-24.14-17.58-29.7-.3-.88-1.53-.88-1.83,0-1.9,5.56-7,18.06-17.58,29.7-.64.71,0,1.82.93,1.59,2.2-.54,5.47-1.59,9.19-3.58.83-.44,1.75.45,1.33,1.29-3.96,7.83-9.87,15.93-16.63,22.52-.67.65-.11,1.77.81,1.64,2.7-.37,6.81-1.2,10.11-3.02.79-.44,1.7.36,1.36,1.2-2.1,5.25-7.69,16.91-19.26,27.83-.62.59-.22,1.63.63,1.67,2.35.09,6.47-.19,11.66-2.31.77-.32,1.56.4,1.3,1.19-1.59,4.75-6.74,17.12-20.37,29.27-.66.59-.25,1.69.64,1.69h73.56c.89,0,1.3-1.1.64-1.69-13.63-12.15-18.78-24.51-20.37-29.27-.26-.79.53-1.51,1.3-1.19Z"/>
          <path class="cls-19" d="m164.31,252.42c5.08,2.1,9.08,2.34,11.32,2.24.79-.03,1.14-.99.56-1.54-11.17-10.52-16.52-21.77-18.5-26.74-.31-.77.52-1.5,1.24-1.1,3.23,1.81,7.3,2.61,9.9,2.96.84.11,1.34-.91.73-1.5-6.53-6.35-12.23-14.16-16.03-21.72-.39-.77.45-1.58,1.21-1.18,3.68,1.98,6.9,3,9.03,3.52.85.2,1.44-.81.85-1.45-10.24-11.23-15.14-23.32-16.92-28.59-.27-.8-1.4-.8-1.67,0-1.79,5.27-6.68,17.36-16.92,28.59-.59.64,0,1.66.85,1.45,2.13-.51,5.35-1.53,9.03-3.52.76-.41,1.6.41,1.21,1.18-3.8,7.55-9.51,15.37-16.03,21.72-.61.59-.11,1.62.73,1.5,2.6-.35,6.67-1.15,9.9-2.96.72-.4,1.55.33,1.24,1.1-1.98,4.97-7.33,16.22-18.5,26.74-.58.54-.23,1.5.56,1.54,2.24.1,6.25-.15,11.32-2.24.7-.29,1.42.37,1.18,1.09-1.49,4.49-6.41,16.42-19.57,28.12-.61.54-.22,1.54.59,1.54h70.5c.81,0,1.19-1,.59-1.54-13.16-11.7-18.08-23.63-19.57-28.12-.24-.72.48-1.38,1.18-1.09Z"/>
        </g>
        <g>
          <path class="cls-7" d="m327.67,266.54s9.05-11.65,19.57-9.18c11.93,2.8,9.39,14.31,9.39,14.31,0,0,10.5-3.71,14.87,1.49,4.3,5.12,0,11.29,0,11.29h-43.83v-17.9Z"/>
          <path class="cls-16" d="m109.24,285.03s-4.54-11.56,3.44-18c10.34-8.35,22.79,4.64,22.79,4.64,0,0-7.17-8.22.38-13.14,5.96-3.88,11.81,4.38,11.81,4.38,0,0-3.42-13.68,7.54-18.87,19.97-9.45,38.61,27.63,38.61,27.63v13.36"/>
          <path class="cls-3" d="m109.24,285.03s-4.54-11.56,3.44-18c10.34-8.35,22.79,4.64,22.79,4.64,0,0-7.17-8.22.38-13.14,5.96-3.88,11.81,4.38,11.81,4.38,0,0-3.42-13.68,7.54-18.87,19.97-9.45,38.61,27.63,38.61,27.63v13.36"/>
        </g>
      </g>
      <g>
        <path class="cls-18" d="m255.45,282.43h-89.08l31.05-76.82,13.49-39.7s48.26,46.96,48.62,48.05-4.08,68.46-4.08,68.46Z"/>
        <path class="cls-17" d="m343.14,263.14c-31.08-35.07-46.42-77.72-47.69-89.41-49.94.87-84.53-16.79-84.53-16.79,6.56,56.62,44.53,125.48,44.53,125.48h78.58s9.1-19.28,9.1-19.28Z"/>
        <path class="cls-17" d="m343.14,263.14c-31.08-35.07-46.42-77.72-47.69-89.41-49.94.87-84.53-16.79-84.53-16.79,6.56,56.62,44.53,125.48,44.53,125.48h78.58s9.1-19.28,9.1-19.28Z"/>
        <path class="cls-10" d="m343.14,263.15l-9.1,19.28h-78.59s-24.09-49.31-36.42-98.78c0,0,44.67,65.58,124.11,79.5Z"/>
        <path class="cls-2" d="m343.14,263.14c-31.08-35.07-46.42-77.72-47.69-89.41-49.94.87-84.53-16.79-84.53-16.79,6.56,56.62,44.53,125.48,44.53,125.48h78.58s9.1-19.28,9.1-19.28Z"/>
        <path class="cls-9" d="m265.97,260.17c-35.88-40.49-53.59-89.73-55.06-103.22-1.46,13.49-19.18,62.73-55.06,103.22l10.51,22.26s0,0,0,0c0,0,0,0,0,0h5.96c35.85-42.21,38.42-97.02,38.58-107.81.15,10.78,2.73,65.6,38.58,107.81h5.96s0-.01,0-.02c0,0,.02.02.02.02l10.51-22.26Z"/>
        <path class="cls-2" d="m265.97,260.17c-35.88-40.49-53.59-89.73-55.06-103.22-1.46,13.49-19.18,62.73-55.06,103.22l10.51,22.26h5.97c35.85-42.21,38.42-97.02,38.58-107.81.15,10.78,2.73,65.6,38.58,107.81,0,0,5.96-.01,5.96-.02,0,0,10.53-22.24,10.53-22.24Z"/>
        <path class="cls-19" d="m211.91,174.74c-5.06,32.34-16.72,65.27-36.75,91.41,0,0-4.13,5.19-4.13,5.19-.21.26-.59.3-.85.1-.27-.22-.3-.62-.07-.88,0,0,4.06-5.18,4.06-5.18,14.65-19.2,24.17-41.95,30.49-65.14,2.25-8.47,4.11-17.1,5.27-25.73.12-1.25,2.13-1.19,1.99.23h0Z"/>
        <path class="cls-19" d="m211.91,174.5c4.78,32.06,16.11,64.83,35.76,90.88,0,0,4.06,5.18,4.06,5.18.23.26.2.67-.08.88-.26.2-.64.16-.84-.1,0,0-4.13-5.19-4.13-5.19-14.92-19.24-24.69-42.11-31.23-65.44-2.33-8.54-4.27-17.15-5.52-25.97-.15-1.27,1.79-1.63,1.99-.23h0Z"/>
        <path class="cls-19" d="m266.07,259.17c21.96,2.17,44.04,3.16,66.11,3.45.16,0,.29.13.29.29,0,.16-.13.29-.29.29-22.12.19-44.24-.34-66.3-2.04-1.31-.13-1.15-2.12.2-1.99h0Z"/>
        <path class="cls-3" d="m343.14,263.14s13.29,15.14,24.84,20.03"/>
        <path class="cls-3" d="m265.97,260.17s15.06,18.12,26.61,23.01"/>
        <path class="cls-3" d="m155.86,260.17s-15.06,18.12-26.61,23.01"/>
      </g>
      <rect class="cls-1" x="97.78" y="282.44" width="304.43" height="7.3" rx="3.65" ry="3.65"/>
      <g>
        <path class="cls-19" d="m153.18,282.44s-2.15-3.8-6.46-6.28,4.24-2.93,8.35,2.41c0,0-.95-2.71-3.31-6.59-.84-1.39.49-2.12,2.3-.82,1.68,1.21,3.88,4.26,4.86,6.42,0,0-.72-4.5.85-4.89,1.78-.45,1.89,4.62,1.89,4.62,0,0,3.49-8.79,6.39-6.77,2.24,1.56-2.41,6.23-2.67,11.89"/>
        <path class="cls-19" d="m325.87,282.44s-3.4-2.85-6.42-4.13.33-3.68,3.32-2.34,3.93,3.57,3.93,3.57c0,0-1.06-2.79-2.34-5.89-.94-2.26,3.37-3.05,4.41.14.84,2.57.61,4.74.61,4.74,0,0,1.81-4.24,4.46-2.59,1.56.96-2.96,4.71-2.96,6.5"/>
      </g>
      <g>
        <path class="cls-19" d="m126.49,302.43l1.82,3.7c.14.29.42.5.75.54l4.08.59c.81.12,1.14,1.12.55,1.69l-2.95,2.88c-.23.23-.34.56-.29.88l.7,4.06c.14.81-.71,1.43-1.44,1.05l-3.65-1.92c-.29-.15-.64-.15-.92,0l-3.65,1.92c-.73.38-1.58-.24-1.44-1.05l.7-4.06c.06-.32-.05-.65-.29-.88l-2.95-2.88c-.59-.57-.26-1.58.55-1.69l4.08-.59c.32-.05.6-.25.75-.54l1.82-3.7c.36-.74,1.42-.74,1.78,0Z"/>
        <path class="cls-19" d="m375.29,302.43l1.82,3.7c.14.29.42.5.75.54l4.08.59c.81.12,1.14,1.12.55,1.69l-2.95,2.88c-.23.23-.34.56-.29.88l.7,4.06c.14.81-.71,1.43-1.44,1.05l-3.65-1.92c-.29-.15-.64-.15-.92,0l-3.65,1.92c-.73.38-1.58-.24-1.44-1.05l.7-4.06c.06-.32-.05-.65-.29-.88l-2.95-2.88c-.59-.57-.26-1.58.55-1.69l4.08-.59c.32-.05.6-.25.75-.54l1.82-3.7c.36-.74,1.42-.74,1.78,0Z"/>
      </g>
      <text class="cls-21" transform="translate(144.16 327.96)"><tspan x="0" y="0">PS Bor</tspan><tspan class="cls-23" x="154.91" y="0">k</tspan><tspan class="cls-4" x="184.03" y="0">y</tspan></text>
      <g>
        <text class="cls-22" transform="translate(210.84 380.62)"><tspan x="0" y="0">76.</tspan></text>
        <g>
          <path class="cls-12" d="m225.95,381.85c-.55-.09-1.03-.39-1.44-.89-.41-.5-.75-1.07-1.03-1.71-.18-.87.18-2.38,1.09-4.55.91-2.16,2.14-4.71,3.69-7.62,1-1.64,1.48-2.6,1.44-2.87-.05-.27-.48-.41-1.3-.41-.41-.09-.89-.19-1.44-.31-.55-.11-.89-.26-1.03-.45-.73-.36-1.15-.76-1.26-1.2-.11-.43.03-.67.44-.72.18-.09.25-.22.21-.38-.05-.16-.05-.31,0-.44.14-.04.31-.04.51,0,.21.05.42.09.65.14h3.52c.34,0,.65.02.92.07.64.09,1.07.03,1.3-.17.23-.21.66-.72,1.3-1.54.36-.64.93-1.49,1.71-2.56.77-1.07,1.46-2.18,2.05-3.32,2.19-3.1,3.41-5.17,3.66-6.22.25-1.05-.29-1.53-1.61-1.44-.73.05-1.54.21-2.43.48s-2.2.73-3.93,1.37c-1.69.73-2.86,1.17-3.52,1.33-.66.16-1.24.1-1.74-.17-.27-.04-.49-.19-.65-.44-.16-.25-.25-.55-.27-.89-.02-.34-.01-.67.03-.99.09-.5,1.03-1.05,2.8-1.64,1.78-.59,3.83-1.18,6.15-1.78,1.05-.18,2.05-.3,3.01-.34.96-.04,1.79,0,2.5.14.71.14,1.15.39,1.33.75.23.23.36.25.41.07.18.05.32.22.41.51.09.3.27.67.55,1.13.46.78.74,1.35.85,1.71.11.37.1.89-.03,1.57-.14.5-.37,1-.68,1.5-.32.5-.57.82-.75.96-.23.18-.46.5-.68.96-.05.18-.18.35-.41.51-.23.16-.46.38-.68.65-.05.18-.15.39-.31.62-.16.23-.26.41-.31.55-.05.05-.23.32-.55.82-.32.5-.71,1.09-1.16,1.78-.46.68-.88,1.31-1.27,1.88-.39.57-.65.97-.79,1.2-.64.59-.96,1.03-.96,1.3s.3.55.89.82c.77.32,1.41.7,1.92,1.13.5.43.84.97,1.03,1.61.04.91-.07,1.44-.34,1.57-.23.32-.58.46-1.06.41-.48-.04-.79-.16-.92-.34-.14-.27-.44-.54-.92-.79-.48-.25-.95-.44-1.4-.58-.46-.14-.75-.21-.89-.21-.18.09-.37.26-.55.51-.18.25-.39.51-.62.79-.32.46-.74,1.2-1.26,2.22-.52,1.03-1.05,2.03-1.57,3.01-.52.98-.92,1.7-1.2,2.15-.05.23-.17.46-.38.68-.21.23-.35.5-.44.82-.18.32-.34.79-.48,1.4s-.21,1.16-.21,1.64.07.74.21.79c.36-.09.63-.06.79.1.16.16.28.42.38.79.23.32.16.7-.21,1.13-.37.43-.84.8-1.44,1.09-.59.3-1.14.4-1.64.31Z"/>
          <path class="cls-14" d="m258.91,378.5c-1.5.41-2.76.56-3.76.45-1-.11-1.98-.63-2.94-1.54-.64-.5-1.12-.98-1.44-1.44-.32-.46-.55-1.14-.68-2.05-.23-.68-.37-1.23-.41-1.64-.05-.41-.01-.91.1-1.5.11-.59.28-1.5.51-2.73.36-1.64.68-2.93.96-3.86.27-.93.82-1.97,1.64-3.11.36-.96.79-1.93,1.26-2.91.48-.98.83-1.61,1.06-1.88.23-.32.57-.8,1.03-1.44.46-.64.93-1.23,1.44-1.78.46-.59,1.07-1.41,1.85-2.46.23-.14.44-.27.65-.41.21-.14.42-.36.65-.68.36-.41.88-.89,1.54-1.44.66-.55,1.41-1.07,2.26-1.57.84-.5,1.69-.93,2.53-1.3.84-.36,1.63-.59,2.36-.68,1.46-.5,2.14-.48,2.05.07.27.27.59.46.96.55.18.05.33.19.45.44.11.25.24.49.38.72.09.37.08.68-.03.96-.11.27-.49.71-1.13,1.3-.64.46-1.08.71-1.33.75-.25.05-.47-.02-.65-.21.04-.18-.16-.34-.62-.48-.27-.09-.87.11-1.78.62-.91.5-1.88,1.14-2.91,1.91-1.03.78-1.88,1.53-2.56,2.26-.41.37-.78.73-1.09,1.09-.32.36-.52.64-.62.82-.59.59-1.34,1.46-2.26,2.6.14.27.47.34.99.21.52-.14.81-.3.85-.48,0-.18.51-.42,1.54-.72,1.03-.3,2.06-.49,3.11-.58.41-.18.97-.21,1.68-.07.71.14,1.29.25,1.74.34,1,.18,1.69.37,2.05.55.36.18.82.62,1.37,1.3.91.87,1.54,1.72,1.88,2.56.34.84.49,1.86.44,3.04,0,.73-.07,1.37-.21,1.91s-.46,1.12-.96,1.71c-.37.59-.84,1.29-1.44,2.09-.59.8-1.17,1.52-1.74,2.15-.57.64-1.06,1.09-1.47,1.37-.18.09-.43.25-.75.48-.05.27-.38.63-.99,1.06-.62.43-1.38.9-2.29,1.4-.91.5-1.83.96-2.77,1.37s-1.77.71-2.5.89Zm-4.58-3.35c.82.18,1.46.26,1.92.24.46-.02,1.25-.26,2.39-.72.36-.09.71-.18,1.03-.27.32-.09.57-.11.75-.07,1.28-.87,2.35-1.55,3.21-2.05,2.42-1.55,4.28-3.27,5.61-5.16,1.32-1.89,1.87-3.45,1.64-4.68.04-.36-.01-.72-.17-1.06-.16-.34-.22-.6-.17-.79-.14,0-.37-.04-.68-.14-.32-.09-.73-.18-1.23-.27-.55-.14-1.08-.18-1.61-.14-.52.05-1.3.17-2.33.38-1.03.21-2.59.56-4.68,1.06-.32.09-.68.24-1.09.44s-.82.35-1.23.44c-.18.14-.46.31-.82.51-.37.21-.71.35-1.03.45-.55.05-1,.48-1.37,1.3-.37.82-.8,2.37-1.3,4.65-.32,1.55-.5,2.6-.55,3.15-.05.55.04,1,.27,1.37.09.55.27.89.55,1.03s.57.25.89.34Z"/>
          <path class="cls-8" d="m282.84,377.06c-.87.32-1.58.47-2.15.44-.57-.02-1.2-.28-1.88-.79-.87-.82-1.15-1.65-.85-2.5.3-.84,1.04-1.67,2.22-2.5.82-.5,1.42-.78,1.81-.82.39-.04.99.11,1.81.48,1.37.87,1.97,1.82,1.81,2.87-.16,1.05-1.08,1.98-2.77,2.8Z"/>
        </g>
      </g>
    </g>
  </g>
</svg>